<?xml version="1.0" standalone="no"?>
<!DOCTYPE svg PUBLIC "-//W3C//DTD SVG 20010904//EN"
 "http://www.w3.org/TR/2001/REC-SVG-20010904/DTD/svg10.dtd">
<svg version="1.0" xmlns="http://www.w3.org/2000/svg"
 width="1000.000000pt" height="1000.000000pt" viewBox="0 0 1000.000000 1000.000000"
 preserveAspectRatio="xMidYMid meet">
<metadata>
Created by potrace 1.16, written by Peter Selinger 2001-2019
</metadata>
<g transform="translate(0.000000,1000.000000) scale(0.100000,-0.100000)"
fill="#000000" stroke="none">
<path d="M4595 9953 c-152 -6 -458 -36 -612 -59 -947 -139 -1732 -499 -2372
-1088 -300 -275 -602 -658 -822 -1041 -327 -572 -580 -1324 -678 -2015 -20
-140 -25 -192 -53 -495 -18 -201 -15 -743 6 -975 100 -1103 442 -2008 1027
-2715 105 -127 365 -386 490 -489 874 -715 2066 -1061 3564 -1033 564 11 1004
64 1465 178 571 140 1095 372 1520 673 361 255 711 609 963 974 404 584 682
1323 801 2127 54 363 61 485 59 971 0 249 -6 519 -13 600 -73 928 -358 1787
-821 2474 -146 218 -293 395 -488 591 -186 186 -273 262 -463 402 -661 491
-1530 797 -2538 892 -316 29 -735 41 -1035 28z m745 -168 c127 -19 269 -54
368 -90 93 -33 485 -214 540 -248 22 -15 85 -79 138 -142 70 -84 110 -123 143
-140 107 -54 270 -85 446 -85 l91 0 10 35 9 35 66 -33 c169 -86 319 -255 344
-389 l7 -38 -488 0 c-468 0 -491 -1 -533 -21 l-45 -20 39 -26 40 -27 335 -7
c184 -4 345 -10 357 -14 23 -7 23 -7 -10 -53 -52 -74 -155 -179 -194 -197 -46
-22 -91 -15 -140 22 l-37 28 -395 0 c-316 -1 -424 -4 -536 -18 -211 -27 -206
-25 -232 -77 -30 -59 -29 -78 12 -163 59 -125 67 -132 555 -487 385 -281 522
-393 676 -552 236 -244 368 -501 431 -841 24 -130 24 -451 0 -607 -78 -502
-255 -926 -546 -1300 -142 -184 -419 -438 -599 -549 -137 -85 -188 -109 -1002
-461 -162 -70 -317 -138 -345 -150 -139 -62 -319 -217 -402 -347 -126 -198
-184 -437 -162 -668 12 -127 32 -201 85 -314 75 -159 180 -286 329 -396 350
-259 795 -273 1161 -36 206 133 363 345 422 572 131 501 -73 963 -527 1190
-71 35 -168 70 -286 101 l-49 13 169 74 c216 92 459 226 799 439 66 41 132 79
147 84 43 15 83 -10 201 -126 332 -327 517 -678 599 -1141 26 -144 36 -433 20
-580 -79 -723 -511 -1328 -1176 -1646 -285 -136 -565 -199 -878 -199 -545 1
-1059 215 -1452 605 -206 204 -356 427 -462 689 -168 415 -198 863 -86 1291
149 574 568 1087 1098 1345 154 76 258 111 480 165 399 97 663 220 911 427
199 166 389 412 477 617 70 162 108 411 88 565 -27 200 -97 371 -218 531 -37
50 -153 176 -258 281 -175 176 -226 219 -649 550 -253 197 -473 368 -489 378
-27 18 -44 19 -176 15 -171 -5 -345 -2 -381 7 -25 6 -25 6 -5 20 11 9 93 53
182 100 89 47 172 93 184 103 l23 19 -94 45 c-148 71 -234 89 -530 107 -172
10 -319 26 -328 35 -8 8 53 74 114 122 119 96 317 197 449 230 78 19 76 7 40
212 -16 92 -33 157 -46 178 -28 46 -77 77 -266 172 -90 45 -163 85 -163 89 0
15 152 81 225 98 100 23 371 15 510 -16 140 -31 301 -25 395 14 66 27 175 96
175 111 0 5 -90 45 -200 90 -268 109 -597 273 -568 282 6 2 145 -23 309 -56
381 -76 538 -94 678 -75 40 6 46 10 46 30 0 16 -7 25 -22 29 -13 3 -189 44
-393 90 -203 47 -379 89 -390 94 -35 14 255 29 500 26 145 -2 269 -10 335 -20z
m-590 -2681 c259 -37 533 -134 745 -264 268 -164 533 -444 654 -691 65 -134
94 -333 72 -490 -33 -224 -174 -512 -353 -717 -204 -234 -516 -417 -877 -516
l-93 -25 99 102 c207 214 293 410 293 672 0 183 -44 331 -141 481 -294 449
-936 529 -1331 165 -117 -108 -194 -233 -245 -398 -25 -82 -27 -100 -27 -273
0 -174 1 -190 27 -265 38 -113 90 -198 177 -285 135 -136 321 -230 579 -292
89 -21 129 -35 120 -40 -8 -5 -77 -43 -154 -85 -294 -159 -495 -326 -702 -583
-88 -108 -108 -116 -196 -71 -152 77 -411 309 -537 481 -240 326 -365 691
-377 1101 -8 254 20 457 94 679 198 595 690 1064 1313 1251 281 84 565 105
860 63z m-1349 -3720 l36 -6 -44 -67 c-130 -195 -252 -548 -253 -730 0 -20 -4
-41 -8 -48 -4 -6 -88 -26 -187 -43 -346 -60 -448 -85 -757 -189 -241 -81 -226
-86 -183 64 60 207 171 382 359 570 193 193 398 321 626 393 142 45 326 70
411 56z"/>
<path d="M6133 9079 c-39 -25 -44 -63 -13 -97 33 -35 67 -33 141 7 l51 29 -52
41 c-58 46 -81 50 -127 20z"/>
</g>
</svg>
